<?xml version="1.0" standalone="no"?>
<!DOCTYPE svg PUBLIC "-//W3C//DTD SVG 20010904//EN"
 "http://www.w3.org/TR/2001/REC-SVG-20010904/DTD/svg10.dtd">
<svg version="1.0" xmlns="http://www.w3.org/2000/svg"
 width="308.000000pt" height="308.000000pt" viewBox="0 0 308.000000 308.000000"
 preserveAspectRatio="xMidYMid meet">
<metadata>
Created by potrace 1.14, written by Peter Selinger 2001-2017
</metadata>
<g transform="translate(0.000000,308.000000) scale(0.100000,-0.100000)"
fill="#000000" stroke="none">
<path d="M1502 2942 c-140 -75 -287 -343 -506 -922 l-25 -65 -1 45 c-2 54 -4
72 -14 125 -5 22 -10 51 -13 65 -10 57 -46 191 -75 280 -55 168 -117 270 -164
270 -47 0 -109 -91 -172 -252 -33 -82 -71 -188 -77 -215 -3 -10 -20 -81 -40
-158 -48 -196 -59 -312 -33 -355 16 -26 78 -56 147 -71 33 -7 51 -16 53 -27 7
-31 -30 -179 -92 -364 -34 -100 -64 -189 -67 -197 -4 -9 -1 -11 6 -6 17 10
176 14 239 6 l53 -8 -6 66 c-10 118 -15 455 -7 486 5 16 13 30 18 30 35 2 110
19 139 31 19 8 35 12 35 9 0 -2 -16 -69 -35 -147 -46 -188 -63 -302 -61 -404
2 -80 3 -85 35 -118 59 -61 232 -127 371 -142 34 -3 62 -12 74 -24 31 -30 29
-118 -9 -320 -12 -65 -65 -275 -104 -410 -22 -74 -37 -137 -35 -139 2 -2 30 2
61 10 75 18 313 16 411 -3 84 -17 80 -25 53 100 -18 78 -39 182 -56 267 -18
92 -41 310 -40 375 2 101 9 118 48 124 259 37 353 63 438 119 113 73 139 181
115 462 -3 39 -8 79 -10 90 -10 55 -16 139 -9 129 9 -12 75 -37 140 -54 40
-10 42 -13 49 -56 7 -46 -1 -343 -12 -464 l-6 -65 116 0 c64 0 116 3 116 8 0
4 -11 53 -24 110 -54 228 -84 420 -68 444 4 7 21 14 37 17 17 3 44 8 60 11 47
9 116 47 139 78 18 25 21 42 21 130 0 94 -8 186 -20 240 -3 12 -7 33 -9 47 -4
20 -22 98 -51 210 -28 113 -95 265 -137 311 -40 46 -64 46 -106 2 -36 -38
-109 -163 -96 -163 4 0 2 -6 -4 -13 -11 -12 -48 -115 -100 -277 -34 -105 -74
-285 -75 -337 -1 -37 -16 -2 -36 85 -38 154 -128 437 -173 542 -114 263 -218
420 -302 455 -46 19 -64 19 -104 -3z"/>
</g>
</svg>
